<svg width="18" height="18" viewBox="0 0 18 18" fill="none" xmlns="http://www.w3.org/2000/svg">
<path d="M9.0498 5.5C7.0998 5.5 5.5498 7.05 5.5498 9C5.5498 10.95 7.0998 12.5 9.0498 12.5C10.9998 12.5 12.5498 10.95 12.5498 9C12.5498 7.05 10.9998 5.5 9.0498 5.5ZM9.0498 11.5C7.6498 11.5 6.5498 10.4 6.5498 9C6.5498 7.6 7.6498 6.5 9.0498 6.5C10.4498 6.5 11.5498 7.6 11.5498 9C11.5498 10.4 10.4498 11.5 9.0498 11.5Z" fill="white"/>
<path d="M16.4 7.35L15 6.9L14.7 6.15L15.4 4.85C15.55 4.55 15.5 4.15 15.25 3.9L14.05 2.7C13.8 2.45 13.4 2.4 13.1 2.55L11.8 3.25L11.05 2.95L10.6 1.55C10.5 1.25 10.2 1 9.85 1H8.15C7.8 1 7.5 1.25 7.45 1.6L7 3C6.7 3.05 6.45 3.15 6.2 3.3L4.9 2.6C4.6 2.45 4.2 2.5 3.95 2.75L2.75 3.95C2.5 4.2 2.45 4.6 2.6 4.9L3.25 6.15C3.15 6.4 3.05 6.7 2.95 6.95L1.55 7.4C1.25 7.5 1 7.8 1 8.15V9.85C1 10.2 1.25 10.5 1.6 10.6L3 11.05L3.3 11.8L2.6 13.1C2.45 13.4 2.5 13.8 2.75 14.05L3.95 15.25C4.2 15.5 4.6 15.55 4.9 15.4L6.2 14.7L6.95 15L7.4 16.45C7.5 16.75 7.8 17 8.15 17H9.85C10.2 17 10.5 16.75 10.6 16.45L11.05 15L11.8 14.7L13.1 15.4C13.4 15.55 13.8 15.5 14.05 15.25L15.25 14.05C15.5 13.8 15.55 13.4 15.4 13.1L14.7 11.8L15 11.05L16.45 10.6C16.75 10.5 17 10.2 17 9.85V8.15C17 7.8 16.75 7.45 16.4 7.35V7.35ZM16 9.7L14.2 10.25L14.15 10.5L13.7 11.55L13.55 11.8L14.45 13.45L13.45 14.45L11.8 13.55L11.55 13.7C11.2 13.9 10.85 14.05 10.5 14.15L10.25 14.2L9.7 16H8.3L7.75 14.2L7.5 14.15L6.45 13.7L6.2 13.55L4.55 14.45L3.55 13.45L4.45 11.8L4.3 11.55C4.1 11.2 3.95 10.85 3.85 10.5L3.8 10.25L2 9.7V8.3L3.7 7.8L3.8 7.55C3.9 7.15 4.05 6.8 4.25 6.45L4.4 6.2L3.55 4.55L4.55 3.55L6.15 4.45L6.4 4.3C6.75 4.1 7.1 3.95 7.5 3.85L7.75 3.75L8.3 2H9.7L10.25 3.75L10.5 3.85C10.85 3.95 11.2 4.1 11.55 4.3L11.8 4.45L13.45 3.55L14.45 4.55L13.55 6.2L13.7 6.45C13.9 6.8 14.05 7.15 14.15 7.5L14.2 7.75L16 8.3V9.7V9.7Z" fill="white"/>
</svg>
