<svg width="18" height="18" viewBox="0 0 18 18" fill="none" xmlns="http://www.w3.org/2000/svg">
<path d="M16.2854 7.85995L14.6104 7.35995C14.4945 6.95561 14.3353 6.565 14.1354 6.19495L14.9554 4.65995C14.9861 4.60201 14.9974 4.5357 14.9875 4.47084C14.9776 4.40599 14.947 4.34607 14.9004 4.29995L13.7054 3.09995C13.6592 3.05329 13.5993 3.02273 13.5345 3.01283C13.4696 3.00292 13.4033 3.01419 13.3454 3.04495L11.8204 3.85995C11.4467 3.65028 11.0509 3.4826 10.6404 3.35995L10.1404 1.70495C10.1192 1.64396 10.0792 1.59125 10.0262 1.55442C9.97322 1.51758 9.90989 1.49851 9.84535 1.49995H8.15535C8.09042 1.50026 8.02728 1.52127 7.97513 1.55994C7.92297 1.59861 7.88451 1.65292 7.86535 1.71495L7.36535 3.36495C6.95136 3.48694 6.55223 3.65464 6.17535 3.86495L4.67535 3.05495C4.61741 3.02419 4.55109 3.01292 4.48624 3.02283C4.42139 3.03273 4.36146 3.06329 4.31535 3.10995L3.10035 4.29495C3.05369 4.34107 3.02313 4.40099 3.01322 4.46584C3.00332 4.5307 3.01458 4.59701 3.04535 4.65495L3.85535 6.15495C3.64538 6.53025 3.47769 6.92768 3.35535 7.33995L1.70035 7.83995C1.63831 7.85911 1.58401 7.89757 1.54534 7.94973C1.50667 8.00189 1.48565 8.06503 1.48535 8.12995V9.81995C1.48565 9.88488 1.50667 9.94802 1.54534 10.0002C1.58401 10.0523 1.63831 10.0908 1.70035 10.11L3.36535 10.61C3.48902 11.0154 3.65669 11.406 3.86535 11.775L3.04535 13.345C3.01458 13.4029 3.00332 13.4692 3.01322 13.5341C3.02313 13.5989 3.05369 13.6588 3.10035 13.705L4.29535 14.9C4.34146 14.9466 4.40139 14.9772 4.46624 14.9871C4.53109 14.997 4.59741 14.9857 4.65535 14.955L6.20035 14.13C6.56583 14.3272 6.95136 14.4847 7.35035 14.6L7.85035 16.285C7.86951 16.347 7.90797 16.4013 7.96013 16.44C8.01228 16.4786 8.07542 16.4997 8.14035 16.5H9.83035C9.89528 16.4997 9.95842 16.4786 10.0106 16.44C10.0627 16.4013 10.1012 16.347 10.1204 16.285L10.6204 14.595C11.0159 14.4791 11.3981 14.3216 11.7604 14.125L13.3154 14.955C13.3733 14.9857 13.4396 14.997 13.5045 14.9871C13.5693 14.9772 13.6292 14.9466 13.6754 14.9L14.8704 13.705C14.917 13.6588 14.9476 13.5989 14.9575 13.5341C14.9674 13.4692 14.9561 13.4029 14.9254 13.345L14.0954 11.795C14.294 11.4313 14.4533 11.0475 14.5704 10.65L16.2554 10.15C16.3174 10.1308 16.3717 10.0923 16.4104 10.0402C16.449 9.98802 16.47 9.92488 16.4704 9.85995V8.15495C16.4733 8.09278 16.4572 8.03119 16.4241 7.97846C16.391 7.92573 16.3426 7.88437 16.2854 7.85995V7.85995ZM9.00035 11.75C8.45645 11.75 7.92477 11.5887 7.47253 11.2865C7.0203 10.9843 6.66782 10.5548 6.45968 10.0523C6.25154 9.54984 6.19708 8.9969 6.30319 8.46346C6.4093 7.93001 6.67121 7.44001 7.05581 7.05541C7.4404 6.67082 7.93041 6.4089 8.46385 6.3028C8.9973 6.19669 9.55023 6.25115 10.0527 6.45929C10.5552 6.66743 10.9847 7.0199 11.2869 7.47214C11.5891 7.92437 11.7504 8.45606 11.7504 8.99995C11.7504 9.7293 11.4606 10.4288 10.9449 10.9445C10.4292 11.4602 9.7297 11.75 9.00035 11.75V11.75Z" fill="white"/>
</svg>
