<?xml version="1.0" standalone="no"?>
<!DOCTYPE svg PUBLIC "-//W3C//DTD SVG 20010904//EN"
 "http://www.w3.org/TR/2001/REC-SVG-20010904/DTD/svg10.dtd">
<svg version="1.0" xmlns="http://www.w3.org/2000/svg"
 width="570.000000pt" height="708.000000pt" viewBox="0 0 570.000000 708.000000"
 preserveAspectRatio="xMidYMid meet">
<g transform="translate(0.000000,708.000000) scale(0.100000,-0.100000)"
fill="#FFFFFF" stroke="none">
<path d="M2170 4065 c-219 -54 -378 -227 -411 -447 -37 -253 113 -501 352
-585 354 -123 719 135 719 507 0 147 -54 276 -159 381 -132 132 -324 187 -501
144z m250 -142 c184 -60 304 -258 271 -445 -47 -267 -324 -415 -567 -304 -76
35 -158 115 -197 195 -30 61 -32 72 -32 171 0 93 3 111 27 163 55 116 183 216
304 236 58 10 132 4 194 -16z"/>
<path d="M762 3546 c-172 -282 -312 -517 -312 -520 0 -3 281 -6 625 -6 385 0
625 4 625 9 0 11 -596 999 -615 1019 -9 10 -75 -92 -323 -502z m518 -77 l190
-314 -201 -3 c-110 -1 -287 -1 -393 0 l-193 3 196 322 c107 178 199 319 203
315 5 -5 94 -150 198 -323z"/>
<path d="M3037 4013 l-47 -48 212 -212 213 -213 -213 -213 -212 -212 47 -48
48 -47 212 212 213 213 213 -213 213 -212 42 43 c23 23 42 47 42 52 0 6 -93
103 -207 217 l-208 208 208 208 c114 114 207 211 207 217 0 5 -19 29 -42 52
l-42 43 -213 -212 -213 -213 -213 213 -212 212 -48 -47z"/>
<path d="M4220 3540 l0 -510 515 0 515 0 0 510 0 510 -515 0 -515 0 0 -510z
m900 0 l0 -380 -380 0 -380 0 0 380 0 380 380 0 380 0 0 -380z"/>
</g>
</svg>
