<svg width="24" height="24" viewBox="0 0 24 24" fill="none" xmlns="http://www.w3.org/2000/svg">
<path d="M15.8803 9.28995L12.0003 13.17L8.12033 9.28995C8.02775 9.19737 7.91784 9.12393 7.79687 9.07383C7.67591 9.02372 7.54626 8.99793 7.41533 8.99793C7.2844 8.99793 7.15475 9.02372 7.03379 9.07383C6.91282 9.12393 6.80291 9.19737 6.71033 9.28995C6.61775 9.38253 6.54431 9.49244 6.4942 9.61341C6.4441 9.73437 6.41831 9.86402 6.41831 9.99495C6.41831 10.1259 6.4441 10.2555 6.4942 10.3765C6.54431 10.4975 6.61775 10.6074 6.71033 10.7L11.3003 15.29C11.3928 15.3827 11.5027 15.4562 11.6237 15.5064C11.7447 15.5566 11.8744 15.5824 12.0053 15.5824C12.1363 15.5824 12.266 15.5566 12.387 15.5064C12.5079 15.4562 12.6178 15.3827 12.7103 15.29L17.3003 10.7C17.393 10.6074 17.4666 10.4976 17.5168 10.3766C17.5669 10.2556 17.5928 10.1259 17.5928 9.99495C17.5928 9.86398 17.5669 9.7343 17.5168 9.61333C17.4666 9.49236 17.393 9.38247 17.3003 9.28995C16.9103 8.90995 16.2703 8.89995 15.8803 9.28995V9.28995Z" fill="#0070D1"/>
</svg>
