<svg width="24" height="24" viewBox="0 0 24 24" fill="none" xmlns="http://www.w3.org/2000/svg">
<path d="M8.11967 14.71L11.9997 10.83L15.8797 14.71C15.9723 14.8026 16.0822 14.8761 16.2031 14.9262C16.3241 14.9763 16.4537 15.0021 16.5847 15.0021C16.7156 15.0021 16.8452 14.9763 16.9662 14.9262C17.0872 14.8761 17.1971 14.8026 17.2897 14.71C17.3823 14.6175 17.4557 14.5076 17.5058 14.3866C17.5559 14.2656 17.5817 14.136 17.5817 14.005C17.5817 13.8741 17.5559 13.7445 17.5058 13.6235C17.4557 13.5025 17.3823 13.3926 17.2897 13.3L12.6997 8.71005C12.6072 8.61734 12.4973 8.5438 12.3763 8.49361C12.2553 8.44343 12.1256 8.4176 11.9947 8.4176C11.8637 8.4176 11.734 8.44343 11.613 8.49361C11.4921 8.5438 11.3822 8.61734 11.2897 8.71005L6.69967 13.3C6.60697 13.3926 6.53342 13.5024 6.48324 13.6234C6.43306 13.7444 6.40723 13.8741 6.40723 14.005C6.40723 14.136 6.43306 14.2657 6.48324 14.3867C6.53342 14.5076 6.60697 14.6175 6.69967 14.71C7.08967 15.09 7.72967 15.1 8.11967 14.71V14.71Z" fill="#0070D1"/>
</svg>
